<svg xmlns="http://www.w3.org/2000/svg" version="1.1" xmlns:xlink="http://www.w3.org/1999/xlink" viewBox="0 0 200 200"><rect width="200" height="200" fill="url('#gradient')"></rect><defs><linearGradient id="gradient" gradientTransform="rotate(45 0.5 0.5)"><stop offset="0%" stop-color="#f5787d"></stop><stop offset="100%" stop-color="#a76273"></stop></linearGradient></defs><g><g fill="#f8b44b" transform="matrix(1.5413948820873056,0,0,1.5413948820873056,8.34576998813273,111.32517810784209)" stroke="#dccf90" stroke-width="0.3"><path d="M4.50-14.22L4.50-2.64L10.47-2.64L10.47 0L1.07 0L1.07-14.22L4.50-14.22ZM21.01 0L17.71 0Q17.54-0.32 17.40-0.95L17.40-0.95Q16.49 0.20 14.86 0.20L14.86 0.20Q13.37 0.20 12.32-0.71Q11.28-1.61 11.28-2.98L11.28-2.98Q11.28-4.70 12.55-5.58Q13.82-6.46 16.24-6.46L16.24-6.46L17.26-6.46L17.26-7.01Q17.26-8.47 16.00-8.47L16.00-8.47Q14.82-8.47 14.82-7.31L14.82-7.31L11.53-7.31Q11.53-8.85 12.84-9.80Q14.14-10.76 16.16-10.76Q18.18-10.76 19.36-9.78Q20.53-8.79 20.56-7.07L20.56-7.07L20.56-2.39Q20.58-0.94 21.01-0.17L21.01-0.17L21.01 0ZM15.65-2.15L15.65-2.15Q16.27-2.15 16.67-2.41Q17.08-2.68 17.26-3.01L17.26-3.01L17.26-4.70L16.30-4.70Q14.58-4.70 14.58-3.15L14.58-3.15Q14.58-2.71 14.88-2.43Q15.19-2.15 15.65-2.15ZM30.94-14.22L30.94-2.64L36.90-2.64L36.90 0L27.51 0L27.51-14.22L30.94-14.22ZM47.44 0L44.15 0Q43.97-0.32 43.84-0.95L43.84-0.95Q42.93 0.20 41.30 0.20L41.30 0.20Q39.80 0.20 38.76-0.71Q37.71-1.61 37.71-2.98L37.71-2.98Q37.71-4.70 38.98-5.58Q40.25-6.46 42.68-6.46L42.68-6.46L43.69-6.46L43.69-7.01Q43.69-8.47 42.43-8.47L42.43-8.47Q41.26-8.47 41.26-7.31L41.26-7.31L37.97-7.31Q37.97-8.85 39.27-9.80Q40.58-10.76 42.60-10.76Q44.62-10.76 45.79-9.78Q46.96-8.79 46.99-7.07L46.99-7.07L46.99-2.39Q47.01-0.94 47.44-0.17L47.44-0.17L47.44 0ZM42.09-2.15L42.09-2.15Q42.71-2.15 43.11-2.41Q43.52-2.68 43.69-3.01L43.69-3.01L43.69-4.70L42.73-4.70Q41.02-4.70 41.02-3.15L41.02-3.15Q41.02-2.71 41.32-2.43Q41.62-2.15 42.09-2.15ZM53.95-14.22L58.45-14.22L61.62-4.33L64.79-14.22L69.30-14.22L69.30 0L65.86 0L65.86-3.32L66.19-10.12L62.75 0L60.49 0L57.04-10.13L57.37-3.32L57.37 0L53.95 0L53.95-14.22ZM70.92-4.82L70.91-5.38Q70.91-6.96 71.52-8.20Q72.14-9.43 73.29-10.10Q74.44-10.76 76.00-10.76L76.00-10.76Q78.37-10.76 79.74-9.29Q81.10-7.82 81.10-5.29L81.10-5.29L81.10-5.18Q81.10-2.71 79.73-1.25Q78.36 0.20 76.02 0.20L76.02 0.20Q73.76 0.20 72.39-1.16Q71.03-2.51 70.92-4.82L70.92-4.82ZM74.21-5.77L74.20-5.18Q74.20-3.71 74.66-3.03Q75.12-2.34 76.02-2.34L76.02-2.34Q77.77-2.34 77.81-5.05L77.81-5.05L77.81-5.38Q77.81-8.22 76.00-8.22L76.00-8.22Q74.35-8.22 74.21-5.77L74.21-5.77ZM84.98-10.57L86.62-3.92L88.29-10.57L91.76-10.57L88.31 0L84.95 0L81.50-10.57L84.98-10.57ZM96.21-10.57L96.21 0L92.91 0L92.91-10.57L96.21-10.57ZM92.71-13.29L92.71-13.29Q92.71-13.99 93.22-14.44Q93.73-14.89 94.54-14.89Q95.35-14.89 95.86-14.44Q96.37-13.99 96.37-13.29Q96.37-12.59 95.86-12.14Q95.35-11.69 94.54-11.69Q93.73-11.69 93.22-12.14Q92.71-12.59 92.71-13.29ZM103.35 0.20L103.35 0.20Q100.92 0.20 99.41-1.25Q97.91-2.71 97.91-5.03L97.91-5.03L97.91-5.30Q97.91-6.92 98.51-8.16Q99.11-9.40 100.26-10.08Q101.42-10.76 103.00-10.76L103.00-10.76Q105.22-10.76 106.51-9.38Q107.80-8.00 107.80-5.53L107.80-5.53L107.80-4.25L101.26-4.25Q101.44-3.36 102.03-2.85Q102.63-2.34 103.57-2.34L103.57-2.34Q105.14-2.34 106.02-3.44L106.02-3.44L107.52-1.66Q106.90-0.81 105.78-0.31Q104.65 0.20 103.35 0.20ZM102.98-8.22L102.98-8.22Q101.53-8.22 101.26-6.31L101.26-6.31L104.58-6.31L104.58-6.56Q104.60-7.35 104.18-7.79Q103.76-8.22 102.98-8.22ZM114.66-2.97L114.66-2.97Q114.66-3.39 114.22-3.64Q113.78-3.90 112.55-4.17Q111.32-4.44 110.52-4.89Q109.72-5.33 109.30-5.97Q108.88-6.60 108.88-7.42L108.88-7.42Q108.88-8.88 110.08-9.82Q111.28-10.76 113.22-10.76L113.22-10.76Q115.31-10.76 116.58-9.81Q117.85-8.87 117.85-7.32L117.85-7.32L114.55-7.32Q114.55-8.59 113.21-8.59L113.21-8.59Q112.70-8.59 112.34-8.31Q111.99-8.02 111.99-7.59L111.99-7.59Q111.99-7.15 112.42-6.88Q112.85-6.60 113.79-6.43Q114.74-6.25 115.45-6.01L115.45-6.01Q117.83-5.19 117.83-3.07L117.83-3.07Q117.83-1.62 116.55-0.71Q115.26 0.20 113.22 0.20L113.22 0.20Q111.87 0.20 110.80-0.29Q109.74-0.78 109.14-1.62Q108.54-2.46 108.54-3.39L108.54-3.39L111.62-3.39Q111.64-2.66 112.11-2.32Q112.58-1.98 113.31-1.98L113.31-1.98Q113.98-1.98 114.32-2.26Q114.66-2.53 114.66-2.97Z"></path></g></g></svg>